<svg width="400" height="400" viewBox="0 0 400 400" fill="none" xmlns="http://www.w3.org/2000/svg">
<path d="M119.222 72C128.103 72 135.278 79.1748 135.278 88.0556V104.111H199.5V88.0556C199.5 79.1748 206.675 72 215.556 72C224.436 72 231.611 79.1748 231.611 88.0556V104.111H255.694C268.99 104.111 279.778 114.898 279.778 128.194V152.278H55V128.194C55 114.898 65.7873 104.111 79.0833 104.111H103.167V88.0556C103.167 79.1748 110.341 72 119.222 72ZM271.75 168.333H279.778V168.685C277.119 168.434 274.459 168.333 271.75 168.333ZM220.974 328.889H79.0833C65.7873 328.889 55 318.102 55 304.806V168.333H271.75C222.981 168.333 183.444 207.87 183.444 256.639C183.444 286.492 198.296 312.884 220.974 328.889Z" fill="#44A805" fill-opacity="0.4"/>
<path d="M271.75 328.889C290.912 328.889 309.289 321.277 322.838 307.727C336.388 294.178 344 275.801 344 256.639C344 237.477 336.388 219.1 322.838 205.55C309.289 192.001 290.912 184.389 271.75 184.389C252.588 184.389 234.211 192.001 220.662 205.55C207.112 219.1 199.5 237.477 199.5 256.639C199.5 275.801 207.112 294.178 220.662 307.727C234.211 321.277 252.588 328.889 271.75 328.889ZM279.778 224.528V248.611H295.833C300.249 248.611 303.861 252.223 303.861 256.639C303.861 261.054 300.249 264.666 295.833 264.666H271.75C267.335 264.666 263.722 261.054 263.722 256.639V224.528C263.722 220.112 267.335 216.5 271.75 216.5C276.165 216.5 279.778 220.112 279.778 224.528Z" fill="#44A805"/>
</svg>
