<svg width="400" height="400" viewBox="0 0 400 400" fill="none" xmlns="http://www.w3.org/2000/svg">
<path d="M104 88C104 79.15 111.15 72 120 72C128.85 72 136 79.15 136 88V104H200V88C200 79.15 207.15 72 216 72C224.85 72 232 79.15 232 88V104H256C269.25 104 280 114.75 280 128V152H56V128C56 114.75 66.75 104 80 104H104V88ZM264 168.35C219.15 172.4 184 210.1 184 256C184 285.75 198.8 312.05 221.4 328H80C66.75 328 56 317.25 56 304V168H264V168.35Z" fill="#44A805" fill-opacity="0.4"/>
<path d="M200 256C200 236.904 207.586 218.591 221.088 205.088C234.591 191.586 252.904 184 272 184C291.096 184 309.409 191.586 322.912 205.088C336.414 218.591 344 236.904 344 256C344 275.096 336.414 293.409 322.912 306.912C309.409 320.414 291.096 328 272 328C252.904 328 234.591 320.414 221.088 306.912C207.586 293.409 200 275.096 200 256ZM284 292C284 288.817 282.736 285.765 280.485 283.515C278.235 281.264 275.183 280 272 280C268.817 280 265.765 281.264 263.515 283.515C261.264 285.765 260 288.817 260 292C260 295.183 261.264 298.235 263.515 300.485C265.765 302.736 268.817 304 272 304C275.183 304 278.235 302.736 280.485 300.485C282.736 298.235 284 295.183 284 292ZM280 216C280 211.6 276.4 208 272 208C267.6 208 264 211.6 264 216V256C264 260.4 267.6 264 272 264C276.4 264 280 260.4 280 256V216Z" fill="#44A805"/>
</svg>
