<svg width="400" height="400" viewBox="0 0 400 400" fill="none" xmlns="http://www.w3.org/2000/svg">
<path d="M84.1111 101C65.8483 101 51 115.848 51 134.111V266.556C51 284.818 65.8483 299.667 84.1111 299.667H315.889C334.152 299.667 349 284.818 349 266.556V134.111C349 115.848 334.152 101 315.889 101H84.1111ZM191.722 167.222H307.611C312.164 167.222 315.889 170.947 315.889 175.5C315.889 180.053 312.164 183.778 307.611 183.778H191.722C187.169 183.778 183.444 180.053 183.444 175.5C183.444 170.947 187.169 167.222 191.722 167.222ZM183.444 225.167C183.444 220.614 187.169 216.889 191.722 216.889H307.611C312.164 216.889 315.889 220.614 315.889 225.167C315.889 229.719 312.164 233.444 307.611 233.444H191.722C187.169 233.444 183.444 229.719 183.444 225.167ZM135.847 146.528V153.719C139.727 154.34 143.401 155.219 146.764 156.151C152.299 157.599 155.559 163.29 154.11 168.826C152.661 174.362 146.97 177.621 141.435 176.173C135.744 174.672 130.26 173.586 125.293 173.482C121.206 173.431 117.015 174.414 114.17 176.069C111.686 177.518 110.962 178.966 110.962 180.881C110.962 181.812 111.014 182.691 113.704 184.347C116.964 186.313 121.723 187.813 128.345 189.779L128.708 189.883C134.502 191.642 141.952 193.866 147.902 197.643C154.576 201.834 160.474 208.663 160.629 219.165C160.784 229.978 155.197 237.842 147.798 242.447C144.073 244.775 139.934 246.223 135.795 247.103V254.139C135.795 259.83 131.139 264.486 125.448 264.486C119.757 264.486 115.101 259.83 115.101 254.139V246.585C109.772 245.447 104.754 243.74 100.511 242.24C99.425 241.877 98.3903 241.515 97.3556 241.153C91.9233 239.342 89.026 233.496 90.8368 228.064C92.6476 222.632 98.4938 219.734 103.926 221.545C105.219 221.959 106.461 222.425 107.651 222.787C114.687 225.167 120.068 226.977 125.81 227.184C130.26 227.34 134.347 226.357 136.882 224.753C139.003 223.459 139.986 221.907 139.934 219.32C139.934 217.82 139.52 216.734 136.882 215.078C133.623 213.009 128.915 211.508 122.396 209.542L121.516 209.284C115.877 207.576 108.789 205.455 103.098 202.041C96.5278 198.057 90.3712 191.435 90.3194 180.984C90.2677 170.068 96.4243 162.514 103.667 158.272C107.237 156.151 111.169 154.754 115.153 153.874V146.528C115.153 140.837 119.809 136.181 125.5 136.181C131.191 136.181 135.847 140.837 135.847 146.528Z" fill="#44A805" fill-opacity="0.4"/>
<path d="M135.849 146.528C135.849 140.837 131.193 136.181 125.502 136.181C119.811 136.181 115.155 140.837 115.155 146.528V153.771C111.223 154.65 107.291 156.047 103.669 158.169C96.4778 162.463 90.2695 169.964 90.3212 180.881C90.373 191.383 96.5296 198.005 103.1 201.937C108.791 205.352 115.879 207.525 121.518 209.18L122.398 209.439C128.916 211.405 133.676 212.957 136.884 214.975C139.522 216.63 139.884 217.769 139.936 219.217C139.988 221.804 139.005 223.356 136.884 224.649C134.297 226.253 130.21 227.236 125.812 227.081C120.07 226.874 114.689 225.063 107.653 222.683C106.463 222.27 105.221 221.856 103.928 221.442C98.4955 219.631 92.6494 222.58 90.8386 227.961C89.0278 233.341 91.9768 239.239 97.3574 241.05C98.3403 241.36 99.4268 241.722 100.513 242.136C104.807 243.637 109.774 245.344 115.103 246.482V254.139C115.103 259.83 119.759 264.486 125.45 264.486C131.141 264.486 135.797 259.83 135.797 254.139V246.999C139.936 246.12 144.075 244.671 147.8 242.343C155.198 237.739 160.786 229.875 160.631 219.062C160.475 208.559 154.577 201.782 147.904 197.54C141.954 193.815 134.504 191.538 128.709 189.779L128.347 189.676C121.725 187.658 117.017 186.209 113.706 184.244C111.016 182.64 110.964 181.708 110.964 180.777C110.964 178.863 111.688 177.414 114.172 175.966C116.965 174.31 121.208 173.327 125.295 173.379C130.262 173.431 135.746 174.517 141.437 176.069C146.972 177.518 152.612 174.258 154.112 168.723C155.612 163.187 152.301 157.548 146.765 156.047C143.402 155.168 139.677 154.288 135.849 153.616V146.528Z" fill="#44A805"/>
</svg>
