<svg width="400" height="400" viewBox="0 0 400 400" fill="none" xmlns="http://www.w3.org/2000/svg">
<path d="M60.2875 80C54.0323 80 49 85.0323 49 91.2875C49 97.5427 54.0323 102.575 60.2875 102.575H81.6867C83.4739 102.575 85.0259 103.845 85.4022 105.632L109.67 233.087C112.727 249.077 126.696 260.6 142.921 260.6H199.829C199.594 258.107 199.5 255.615 199.5 253.075C199.5 247.949 199.97 242.916 200.864 238.025H142.921C137.513 238.025 132.857 234.168 131.822 228.854L129.282 215.45H208.53C222.216 188.642 250.106 170.3 282.275 170.3C289.236 170.3 295.961 171.147 302.404 172.746L316.937 118.754C320.182 106.808 311.152 95.05 298.783 95.05H105.485C101.205 86.02 92.0806 80 81.6867 80H60.2875ZM131.775 320.8C137.762 320.8 143.504 318.422 147.738 314.188C151.972 309.954 154.35 304.212 154.35 298.225C154.35 292.238 151.972 286.496 147.738 282.262C143.504 278.028 137.762 275.65 131.775 275.65C125.788 275.65 120.046 278.028 115.812 282.262C111.578 286.496 109.2 292.238 109.2 298.225C109.2 304.212 111.578 309.954 115.812 314.188C120.046 318.422 125.788 320.8 131.775 320.8Z" fill="#44A805" fill-opacity="0.4"/>
<path d="M282.275 320.8C300.237 320.8 317.463 313.664 330.164 300.963C342.864 288.263 350 271.036 350 253.075C350 235.113 342.864 217.887 330.164 205.186C317.463 192.485 300.237 185.35 282.275 185.35C264.313 185.35 247.087 192.485 234.386 205.186C221.685 217.887 214.55 235.113 214.55 253.075C214.55 271.036 221.685 288.263 234.386 300.963C247.087 313.664 264.313 320.8 282.275 320.8ZM313.927 243.339L280.064 277.202C277.148 280.118 272.351 280.118 269.435 277.202L250.623 258.389C247.707 255.473 247.707 250.676 250.623 247.76C253.539 244.844 258.336 244.844 261.252 247.76L274.75 261.258L303.298 232.71C306.214 229.794 311.011 229.794 313.927 232.71C316.843 235.626 316.843 240.423 313.927 243.339Z" fill="#44A805"/>
</svg>
