<svg width="400" height="400" viewBox="0 0 400 400" fill="none" xmlns="http://www.w3.org/2000/svg">
<path d="M156.496 88.6038C156.551 88.1621 156.661 87.7204 156.717 87.334H129.333C109.845 87.334 94 103.179 94 122.667V299.334C94 318.823 109.845 334.667 129.333 334.667H270.667C290.155 334.667 306 318.823 306 299.334V122.667C306 103.179 290.155 87.334 270.667 87.334H243.283C243.394 87.7757 243.449 88.2173 243.504 88.6038C254.159 92.0819 261.833 102.075 261.833 113.834V127.084C261.833 134.427 255.926 140.334 248.583 140.334H200H151.417C144.074 140.334 138.167 134.427 138.167 127.084V113.834C138.167 102.075 145.841 92.0819 156.496 88.6038ZM262.385 202.719L191.719 273.386C186.529 278.576 178.138 278.576 173.003 273.386L137.615 238.053C132.425 232.863 132.425 224.471 137.615 219.337C142.804 214.203 151.196 214.148 156.33 219.337L182.278 245.285L243.615 183.949C248.804 178.759 257.196 178.759 262.33 183.949C267.465 189.138 267.52 197.53 262.33 202.664L262.385 202.719Z" fill="#44A805" fill-opacity="0.4"/>
<path d="M156.496 88.6031C145.841 92.0813 138.167 102.074 138.167 113.833V127.083C138.167 134.426 144.074 140.333 151.417 140.333H200H248.583C255.926 140.333 261.833 134.426 261.833 127.083V113.833C261.833 102.074 254.159 92.0813 243.504 88.6031C239.971 67.8448 221.807 52 200 52C178.193 52 160.029 67.8448 156.496 88.6031ZM186.75 96.1667C186.75 92.6525 188.146 89.2824 190.631 86.7975C193.116 84.3126 196.486 82.9167 200 82.9167C203.514 82.9167 206.884 84.3126 209.369 86.7975C211.854 89.2824 213.25 92.6525 213.25 96.1667C213.25 99.6808 211.854 103.051 209.369 105.536C206.884 108.021 203.514 109.417 200 109.417C196.486 109.417 193.116 108.021 190.631 105.536C188.146 103.051 186.75 99.6808 186.75 96.1667ZM262.385 202.719C267.575 197.529 267.575 189.137 262.385 184.003C257.196 178.869 248.804 178.814 243.67 184.003L182.389 245.284L156.441 219.336C151.251 214.147 142.859 214.147 137.725 219.336C132.591 224.526 132.535 232.918 137.725 238.052L173.058 273.385C178.248 278.575 186.64 278.575 191.774 273.385L262.385 202.719Z" fill="#44A805"/>
</svg>
