<svg width="400" height="400" viewBox="0 0 400 400" fill="none" xmlns="http://www.w3.org/2000/svg">
<path d="M206.852 64.5662C204.584 63.5401 202.154 63 199.615 63C197.077 63 194.647 63.5401 192.378 64.5662L90.6847 107.717C78.8033 112.74 69.9462 124.459 70.0002 138.609C70.2703 192.183 92.3048 290.204 185.358 334.76C194.377 339.08 204.854 339.08 213.873 334.76C306.926 290.204 328.96 192.183 329.23 138.609C329.284 124.459 320.427 112.74 308.546 107.717L206.852 64.5662ZM260.642 175.873L191.514 245.001C186.438 250.078 178.229 250.078 173.206 245.001L138.642 210.437C133.566 205.361 133.566 197.152 138.642 192.129C143.719 187.106 151.928 187.052 156.95 192.129L182.333 217.512L242.28 157.511C247.357 152.434 255.566 152.434 260.588 157.511C265.611 162.588 265.665 170.797 260.588 175.819L260.642 175.873Z" fill="#44A805" fill-opacity="0.4"/>
<path d="M260.643 157.512C265.719 162.588 265.719 170.797 260.643 175.82L191.515 245.002C186.438 250.078 178.229 250.078 173.206 245.002L138.642 210.438C133.566 205.361 133.566 197.152 138.642 192.13C143.719 187.107 151.928 187.053 156.951 192.13L182.333 217.513L242.28 157.512C247.357 152.435 255.566 152.435 260.589 157.512H260.643Z" fill="#44A805"/>
</svg>
